<?xml version="1.0" standalone="no"?>
<!DOCTYPE svg PUBLIC "-//W3C//DTD SVG 20010904//EN"
 "http://www.w3.org/TR/2001/REC-SVG-20010904/DTD/svg10.dtd">
<svg version="1.0" xmlns="http://www.w3.org/2000/svg"
 width="1344.000000pt" height="200.000000pt" viewBox="0 0 1344.000000 200.000000"
 preserveAspectRatio="xMidYMid meet">

<g transform="translate(0.000000,200.000000) scale(0.100000,-0.100000)"
fill="#000000" stroke="none">
<path d="M7320 1497 c-43 -22 -50 -51 -50 -205 l0 -144 29 -29 29 -29 397 0
397 0 29 30 30 30 -3 155 c-3 145 -4 156 -26 177 l-23 23 -392 3 c-302 1 -398
-1 -417 -11z"/>
<path d="M8249 1481 l-29 -29 0 -157 c0 -152 1 -156 25 -180 l24 -25 401 0
401 0 24 25 c24 23 25 28 25 179 0 85 -3 162 -6 171 -17 42 -44 45 -449 45
l-387 0 -29 -29z"/>
<path d="M9208 1495 c-40 -22 -50 -70 -46 -223 3 -132 3 -134 31 -158 l28 -24
397 0 c296 1 401 4 413 13 33 25 39 55 39 201 0 139 -1 146 -24 173 l-24 28
-394 2 c-333 2 -397 0 -420 -12z"/>
<path d="M10164 1500 c-47 -19 -54 -45 -54 -198 0 -144 6 -174 39 -199 12 -9
117 -12 413 -13 l397 0 28 24 c28 24 28 26 31 158 2 79 -1 148 -8 170 -20 68
-21 68 -447 67 -208 0 -388 -4 -399 -9z"/>
<path d="M11105 1498 c-42 -23 -45 -36 -45 -200 0 -155 1 -159 25 -183 l24
-25 401 0 401 0 24 25 c24 24 25 28 25 180 l0 157 -29 29 -29 29 -389 0 c-261
-1 -395 -4 -408 -12z"/>
<path d="M12050 1497 c-43 -21 -50 -51 -50 -205 l0 -144 29 -29 29 -29 167 0
c163 0 166 0 190 25 24 23 25 28 25 179 0 85 -3 162 -6 171 -14 36 -57 45
-211 45 -99 0 -156 -4 -173 -13z"/>
<path d="M12590 1492 c-19 -9 -45 -32 -57 -51 -23 -34 -23 -36 -23 -396 0
-505 -40 -465 465 -465 385 0 394 1 439 63 20 28 21 40 21 402 0 362 -1 374
-21 402 -45 62 -54 63 -439 63 -313 0 -354 -2 -385 -18z m701 -131 l29 -29 0
-287 0 -287 -29 -29 -29 -29 -286 0 -286 0 -32 29 -33 29 0 287 0 287 33 29
32 29 286 0 286 0 29 -29z"/>
<path d="M81 1412 c-19 -9 -44 -30 -55 -45 -20 -28 -21 -40 -21 -407 0 -367 1
-379 21 -407 45 -62 54 -63 439 -63 390 0 397 1 442 69 23 34 23 36 23 401 0
511 41 470 -465 470 -313 0 -354 -2 -384 -18z m687 -118 c49 -34 52 -55 52
-334 0 -212 -3 -266 -15 -290 -31 -60 -33 -60 -343 -60 l-284 0 -29 29 -29 29
0 292 0 292 29 29 29 29 284 0 c241 0 287 -2 306 -16z"/>
<path d="M1045 1419 c-42 -24 -45 -37 -45 -204 0 -161 0 -162 26 -186 24 -23
33 -24 176 -27 235 -5 241 0 236 229 -4 202 5 193 -211 197 -106 1 -169 -2
-182 -9z"/>
<path d="M1509 1401 l-29 -29 0 -156 c0 -149 1 -156 24 -183 l24 -28 400 0
400 0 26 24 c26 24 26 25 26 185 -1 168 -4 181 -47 204 -15 9 -134 12 -408 12
l-387 0 -29 -29z"/>
<path d="M2469 1415 c-39 -21 -49 -63 -49 -202 0 -153 11 -187 67 -203 26 -8
157 -10 416 -8 l379 3 24 28 c23 27 24 34 24 182 0 148 -1 155 -24 182 l-24
28 -394 2 c-328 2 -397 0 -419 -12z"/>
<path d="M3424 1420 c-48 -19 -54 -44 -54 -207 0 -146 1 -153 24 -180 l24 -28
379 -3 c425 -4 446 -1 469 53 17 42 19 266 3 314 -21 60 -28 61 -446 60 -208
0 -388 -4 -399 -9z"/>
<path d="M4365 1418 c-41 -24 -44 -37 -45 -204 0 -160 0 -161 26 -185 l26 -24
400 0 400 0 24 28 c23 27 24 34 24 183 l0 156 -29 29 -29 29 -389 0 c-273 -1
-394 -4 -408 -12z"/>
<path d="M5310 1417 c-42 -21 -50 -51 -50 -199 0 -150 8 -181 51 -204 42 -21
767 -21 808 1 45 23 53 56 49 219 -3 136 -5 147 -26 168 l-23 23 -392 3 c-302
1 -398 -1 -417 -11z"/>
<path d="M7783 976 c-28 -24 -28 -26 -31 -153 -2 -76 1 -146 7 -171 20 -74 16
-73 462 -70 l391 3 24 28 c23 27 24 34 24 183 0 151 -1 156 -25 179 l-24 25
-400 0 -400 0 -28 -24z"/>
<path d="M8739 987 c-33 -25 -39 -55 -39 -201 0 -139 1 -146 24 -173 l24 -28
379 -3 c208 -2 393 0 411 3 23 4 39 16 53 38 18 29 19 47 17 180 l-3 149 -28
24 -28 24 -397 0 c-296 -1 -401 -4 -413 -13z"/>
<path d="M9675 975 c-24 -24 -25 -28 -25 -184 l0 -159 31 -26 31 -26 388 0
388 0 31 26 31 26 0 159 c0 156 -1 160 -25 184 l-24 25 -401 0 -401 0 -24 -25z"/>
<path d="M10623 976 l-28 -24 0 -161 c0 -154 1 -161 23 -183 l23 -23 404 0
404 0 23 23 c22 21 23 32 26 176 l3 153 -26 31 -27 32 -398 0 -399 0 -28 -24z"/>
<path d="M11565 975 c-24 -23 -25 -28 -25 -179 0 -149 1 -156 24 -183 l24 -28
384 -3 c210 -1 393 0 406 3 12 3 31 14 42 25 18 18 20 34 20 180 0 157 -1 161
-25 185 l-24 25 -401 0 -401 0 -24 -25z"/>
<path d="M1060 913 c-8 -3 -25 -15 -37 -26 -22 -20 -23 -27 -23 -178 0 -87 3
-165 6 -174 17 -42 44 -45 449 -45 l387 0 29 29 29 29 0 156 c0 149 -1 156
-24 183 l-24 28 -389 2 c-213 1 -395 -1 -403 -4z"/>
<path d="M1983 900 c-41 -25 -46 -50 -41 -223 5 -200 -38 -181 426 -185 207
-2 392 0 410 3 59 11 72 48 72 207 0 85 -5 147 -12 163 -24 54 -35 55 -445 55
-357 0 -380 -1 -410 -20z"/>
<path d="M2944 910 c-48 -19 -54 -44 -54 -211 l0 -157 31 -26 31 -26 388 0
388 0 31 26 31 26 0 162 c0 162 0 163 -26 187 l-26 24 -386 2 c-213 1 -397 -2
-408 -7z"/>
<path d="M3881 906 c-43 -24 -50 -51 -51 -201 0 -122 3 -144 20 -172 13 -22
29 -34 52 -38 18 -3 203 -5 410 -3 l377 3 23 23 c22 22 23 29 23 187 0 158 -1
165 -23 187 l-23 23 -392 2 c-313 2 -397 0 -416 -11z"/>
<path d="M4834 910 c-48 -19 -54 -44 -54 -208 l0 -154 29 -29 29 -29 387 0
c439 0 436 -1 456 72 6 25 9 93 7 168 -4 137 -12 163 -62 180 -36 12 -761 13
-792 0z"/>
</g>
</svg>
