<svg id="Calque_1" data-name="Calque 1" xmlns="http://www.w3.org/2000/svg" viewBox="0 0 128.26 172.84"><polygon points="62.72 74.09 83.6 74.09 87.71 67.72 99.82 70.34 108.71 78.97 113.6 78.97 115.82 72.22 128.26 59.16 126.7 55.79 117.82 58.6 87.05 58.6 81.05 50.54 62.72 50.54 66.38 50.54 48.05 50.54 42.05 58.6 10.44 58.6 1.55 55.79 0 59.16 12.44 72.22 14.66 78.97 19.55 78.97 28.44 70.34 41.39 67.72 45.5 74.09 66.38 74.09 62.72 74.09"/><polygon points="73.39 0 73.25 29.85 73.39 46.79 67.88 55.1 64.55 55.1 61.22 55.1 55.72 46.98 55.72 29.85 55.44 10.79 73.39 0"/><polygon points="54.26 130.92 54.26 164.65 54.26 172.84 59.71 164.9 59.71 153.49 62.69 147.79 62.69 132.66 67.9 129.19 67.9 119.02 74.84 110.84 74.84 64.75 54.26 64.75 54.26 130.92"/></svg>