<?xml version="1.0" standalone="no"?>
<!DOCTYPE svg PUBLIC "-//W3C//DTD SVG 20010904//EN"
 "http://www.w3.org/TR/2001/REC-SVG-20010904/DTD/svg10.dtd">
<svg version="1.0" xmlns="http://www.w3.org/2000/svg"
 width="5051.000000pt" height="4500.000000pt" viewBox="0 0 5051.000000 4500.000000"
 preserveAspectRatio="xMidYMid meet">

<g transform="translate(0.000000,4500.000000) scale(0.100000,-0.100000)"
fill="#000000" stroke="none">
<path d="M28300 42045 l0 -425 1788 2 1787 3 3 423 2 422 -1790 0 -1790 0 0
-425z"/>
<path d="M38730 42045 l0 -425 1785 0 1785 0 0 425 0 425 -1785 0 -1785 0 0
-425z"/>
<path d="M12318 40718 l-1298 -1092 0 -6308 c0 -3469 3 -6308 6 -6308 4 0 589
392 1300 872 l1294 871 0 5379 c0 2958 3 5378 8 5377 4 0 597 -280 1317 -622
l1310 -623 3 -1517 2 -1517 -452 0 -453 -1 -527 -1172 c-290 -645 -530 -1180
-534 -1189 -6 -17 45 -18 980 -18 l986 0 2 -2920 3 -2921 1305 902 c718 495
1313 908 1323 916 16 15 17 124 17 2020 l0 2003 463 1 462 0 706 1187 705
1187 -1168 3 -1168 2 0 2249 0 2250 140 -67 c76 -37 751 -366 1499 -732 l1360
-665 3 -5628 3 -5628 1305 901 c717 496 1313 908 1322 917 17 15 18 266 18
5462 l0 5447 -1720 1037 -1720 1038 -1311 -911 c-721 -502 -1316 -910 -1322
-907 -7 3 -689 413 -1516 911 l-1503 907 -56 -48 c-31 -26 -445 -380 -921
-786 l-866 -739 -5 787 -5 786 -1297 -1093z"/>
<path d="M27540 41045 l0 -425 1788 2 1787 3 3 423 2 422 -1790 0 -1790 0 0
-425z"/>
<path d="M39490 41045 l0 -425 1785 0 1785 0 0 425 0 425 -1785 0 -1785 0 0
-425z"/>
<path d="M26770 40045 l0 -425 1790 0 1790 0 0 425 0 425 -1790 0 -1790 0 0
-425z"/>
<path d="M40242 40048 l3 -423 1788 -3 1787 -2 0 425 0 425 -1790 0 -1790 0 2
-422z"/>
<path d="M33623 37752 l-1292 -1087 -1 -4363 c0 -4152 1 -4362 18 -4353 9 5
591 396 1292 869 l1275 859 5 3345 5 3345 525 -249 c289 -137 796 -378 1128
-535 l602 -286 0 -3418 c0 -1881 3 -3419 8 -3418 4 0 520 379 1147 843 l1140
842 3 3666 2 3665 -72 33 c-907 405 -3013 1330 -3021 1326 -7 -2 -338 -283
-737 -624 l-725 -620 -5 624 -5 623 -1292 -1087z"/>
<path d="M42235 37997 l-1290 -842 -3 -4608 c-1 -2534 0 -4607 3 -4607 8 0
2580 1734 2587 1745 10 13 10 9155 1 9155 -5 0 -588 -380 -1298 -843z"/>
<path d="M28620 37999 c-712 -429 -1302 -784 -1310 -789 -12 -7 -11 -207 8
-1582 20 -1380 23 -1932 22 -4504 l0 -2931 170 -251 c94 -138 170 -254 170
-257 0 -3 -330 -5 -732 -5 l-733 -1 -438 -589 -439 -590 -4629 0 -4629 0 -602
190 c-332 105 -622 197 -646 205 l-44 14 -57 -122 c-32 -67 -84 -179 -116
-248 l-57 -127 912 -957 912 -957 162 -491 162 -492 360 -3 360 -2 649 629
650 630 60 6 c33 3 1478 88 3210 190 1733 101 3171 186 3196 188 l47 4 302
-469 302 -468 639 0 639 0 0 -12037 c0 -10509 2 -12035 14 -12023 8 8 191 271
405 584 l391 568 0 836 0 836 215 412 215 412 0 1111 0 1111 385 257 385 256
0 746 0 746 505 595 505 595 0 7498 0 7497 640 0 640 0 30 43 c17 23 153 233
304 467 l274 425 49 -3 c912 -51 6366 -374 6409 -379 l61 -8 647 -627 646
-628 360 0 359 0 163 494 163 494 870 912 c479 502 889 934 911 959 l42 47
-113 244 c-94 203 -116 244 -131 242 -11 -2 -302 -94 -648 -203 l-630 -199
-4630 2 -4630 3 -436 585 -436 585 -742 3 -741 2 180 275 181 274 -11 3178
c-8 2202 -8 3731 -1 4978 12 2192 12 2395 3 2394 -5 0 -591 -351 -1303 -780z"/>
<path d="M3283 29678 l-2083 -1580 0 -8434 c0 -8022 1 -8434 17 -8442 10 -5
956 -368 2101 -807 l2084 -798 1119 1119 1119 1119 -1861 625 c-1240 416
-1863 629 -1867 640 -6 16 36 13130 47 14627 l6 862 1465 -800 c944 -516 1469
-798 1477 -792 26 18 2175 2497 2167 2500 -5 2 -275 45 -600 97 l-591 94
-1253 776 c-688 427 -1255 776 -1258 775 -4 0 -944 -712 -2089 -1581z"/>
<path d="M33121 23308 l-1141 -942 0 -5797 0 -5796 961 -639 c529 -352 967
-642 974 -646 9 -5 333 366 984 1127 534 624 971 1136 971 1138 0 3 -283 240
-630 527 -346 287 -632 525 -634 528 -2 4 -78 2580 -168 5725 -89 3144 -166
5717 -169 5717 -4 0 -520 -424 -1148 -942z"/>
<path d="M39890 19437 l-1505 -1293 0 -3487 0 -3488 1763 -769 c970 -423 1771
-772 1781 -775 14 -4 310 274 1215 1137 658 628 1193 1145 1189 1149 -5 3
-786 280 -1738 614 -951 334 -1732 609 -1734 611 -3 2 12 322 32 711 l36 707
379 380 c1400 1408 3789 3823 3789 3831 1 8 -3681 1965 -3697 1965 -3 0 -682
-582 -1510 -1293z m1624 -1982 c410 -214 746 -393 746 -397 0 -7 -1343 -1452
-1466 -1578 l-44 -45 0 1208 c0 746 4 1207 9 1205 6 -1 345 -178 755 -393z"/>
<path d="M10182 19254 l-1512 -1267 2 -3409 3 -3409 1750 -825 c963 -454 1769
-834 1792 -844 l42 -19 752 665 c450 397 759 662 767 659 7 -3 376 -271 820
-596 546 -401 810 -589 818 -583 42 30 2413 2198 2409 2202 -3 3 -450 229
-993 503 l-987 497 -5 2773 -5 2773 -2055 1069 c-1130 588 -2062 1071 -2070
1073 -9 3 -594 -480 -1528 -1262z m2157 -2242 c678 -303 1235 -553 1237 -555
2 -2 3 -1026 2 -2274 l-3 -2271 -1250 462 -1250 462 -3 2368 c-2 2253 -1 2368
15 2363 10 -3 573 -253 1252 -555z"/>
<path d="M20445 19242 l-1820 -1278 -3 -1611 -2 -1610 600 -546 600 -545 273
133 c149 73 591 291 981 483 l710 350 253 -171 253 -171 0 -1108 0 -1107 -52
24 c-29 13 -444 206 -922 429 l-868 405 -1292 -941 c-710 -517 -1299 -948
-1308 -956 -16 -13 143 -91 1759 -859 977 -464 1782 -842 1788 -839 7 2 814
502 1794 1111 l1781 1107 0 1864 0 1865 -187 202 c-104 111 -322 347 -487 525
-164 177 -302 322 -308 322 -8 0 -1955 -1018 -2114 -1106 l-61 -34 -299 201
c-165 111 -305 208 -313 215 -12 11 -16 179 -22 1116 -3 607 -5 1104 -4 1106
1 1 45 -3 96 -9 91 -12 122 -24 957 -381 l863 -369 28 18 c15 10 659 457 1430
993 1058 736 1397 977 1384 982 -10 4 -303 48 -652 99 l-635 92 -1175 635
c-647 349 -1183 637 -1191 638 -8 2 -834 -571 -1835 -1274z"/>
</g>
</svg>
